<?xml version="1.0" standalone="no"?>
<!DOCTYPE svg PUBLIC "-//W3C//DTD SVG 20010904//EN"
 "http://www.w3.org/TR/2001/REC-SVG-20010904/DTD/svg10.dtd">
<svg version="1.0" xmlns="http://www.w3.org/2000/svg"
 width="225.000000pt" height="225.000000pt" viewBox="0 0 225.000000 225.000000"
 preserveAspectRatio="xMidYMid meet">
<metadata>
Created by potrace 1.12, written by Peter Selinger 2001-2015
</metadata>
<g transform="translate(0.000000,225.000000) scale(0.100000,-0.100000)"
fill="#000000" stroke="none">
<path d="M865 1801 c-100 -26 -175 -109 -190 -214 -9 -57 -16 -58 -131 -19
-97 34 -174 84 -244 158 -50 53 -54 55 -67 38 -28 -38 -45 -123 -38 -183 4
-31 11 -64 16 -73 11 -21 -5 -24 -45 -8 -25 9 -26 9 -26 -33 1 -56 29 -115 78
-163 22 -21 45 -57 52 -78 14 -44 89 -123 126 -132 13 -3 24 -10 24 -15 0 -12
-117 -46 -209 -61 l-79 -12 35 -24 c102 -70 250 -107 387 -99 50 4 100 7 111
9 19 3 20 -4 23 -171 3 -196 9 -219 72 -252 33 -18 69 -19 643 -19 658 0 634
-2 687 55 l25 27 0 378 0 378 -25 27 c-52 56 -44 55 -511 55 l-431 0 5 23 c4
12 9 53 13 90 6 64 10 71 56 120 27 29 53 60 59 70 10 17 7 18 -35 12 -25 -4
-46 -4 -46 -1 0 4 9 24 20 46 11 22 20 41 20 44 0 2 -34 -5 -76 -16 -66 -17
-78 -17 -93 -5 -47 42 -144 64 -206 48z m173 -88 c36 -29 43 -31 73 -23 19 6
35 10 37 10 2 0 -6 -16 -18 -35 l-22 -35 33 0 33 0 -28 -29 c-23 -24 -28 -39
-32 -97 -2 -38 -8 -82 -12 -99 l-8 -30 -160 -5 c-237 -7 -244 -15 -245 -256
l-1 -155 -27 -11 c-45 -19 -247 -15 -316 6 l-60 18 73 24 c76 25 99 37 171 91
l44 33 -44 0 c-68 0 -118 18 -161 59 l-40 37 74 19 73 19 -35 9 c-136 35 -142
38 -191 87 -28 28 -49 58 -49 70 0 14 4 19 12 14 14 -9 158 -22 158 -14 0 3
-20 18 -44 33 -56 35 -76 78 -78 162 -1 69 7 91 23 63 13 -23 120 -98 185
-131 58 -29 142 -52 228 -63 57 -6 58 -6 51 16 -20 63 5 161 51 201 44 39 78
49 146 46 58 -2 72 -7 106 -34z m1008 -426 l24 -28 0 -349 0 -349 -24 -28 -24
-28 -610 -3 -610 -2 -31 26 -31 26 0 357 0 358 23 20 c12 11 29 23 37 26 8 3
287 5 618 4 l604 -2 24 -28z"/>
</g>
</svg>
