<?xml version="1.0" standalone="no"?>
<!DOCTYPE svg PUBLIC "-//W3C//DTD SVG 20010904//EN"
 "http://www.w3.org/TR/2001/REC-SVG-20010904/DTD/svg10.dtd">
<svg version="1.0" xmlns="http://www.w3.org/2000/svg"
 width="225.000000pt" height="225.000000pt" viewBox="0 0 225.000000 225.000000"
 preserveAspectRatio="xMidYMid meet">
<metadata>
Created by potrace 1.12, written by Peter Selinger 2001-2015
</metadata>
<g transform="translate(0.000000,225.000000) scale(0.100000,-0.100000)"
fill="#000000" stroke="none">
<path d="M1290 1857 c-59 -39 -73 -76 -77 -196 -3 -105 -3 -106 -30 -118 -68
-29 -166 -8 -226 49 l-39 37 -132 -36 c-72 -19 -140 -40 -150 -46 -28 -14
-336 -307 -336 -319 0 -9 237 -281 251 -286 4 -2 38 24 75 57 l69 60 3 -315 2
-314 418 2 417 3 0 313 c0 171 2 312 3 312 2 0 31 -25 65 -55 33 -30 63 -55
66 -55 3 1 60 67 125 147 l120 146 -90 83 c-85 80 -88 83 -59 84 48 0 97 33
122 80 20 37 23 58 23 155 0 97 -3 118 -23 155 -40 76 -56 80 -328 80 -228 0
-237 -1 -269 -23z m518 -43 c40 -28 52 -66 52 -169 0 -159 -24 -185 -172 -185
l-98 0 0 30 c0 25 -4 30 -25 30 -22 0 -25 -4 -25 -35 0 -51 -23 -99 -61 -127
-48 -35 -73 -43 -64 -21 4 10 9 55 12 101 l6 84 -29 -4 c-23 -2 -29 -7 -27
-26 2 -12 -3 -25 -11 -28 -19 -7 -73 21 -86 45 -13 25 -13 247 0 271 24 44 53
49 285 50 184 0 224 -3 243 -16z m-882 -265 c51 -58 182 -86 264 -58 30 11 34
10 57 -20 27 -35 71 -61 103 -61 39 0 15 -86 -27 -96 -16 -4 -23 -13 -23 -30
0 -21 5 -24 38 -24 92 0 193 53 228 121 12 24 21 29 50 29 31 0 50 -12 129
-82 51 -46 93 -86 92 -90 -3 -12 -168 -208 -175 -208 -4 0 -44 32 -89 70 -45
39 -84 70 -87 70 -3 0 -6 -153 -6 -340 l0 -340 -365 0 -365 0 0 340 c0 187 -3
340 -6 340 -3 0 -46 -36 -96 -80 -50 -45 -94 -77 -98 -73 -109 122 -180 207
-178 212 2 4 67 67 146 141 l143 135 117 32 c64 17 120 32 123 32 3 1 14 -9
25 -20z"/>
<path d="M1030 1310 c-26 -26 -26 -74 0 -100 l21 -21 -27 -34 -26 -35 36 0
c28 0 39 6 53 28 32 50 53 51 53 1 0 -27 3 -30 28 -27 l27 3 3 103 3 102 -76
0 c-62 0 -79 -4 -95 -20z"/>
<path d="M934 1010 c-36 -14 -64 -59 -64 -102 0 -56 51 -108 107 -108 21 0 45
4 53 10 9 6 19 5 28 -2 10 -9 17 -7 30 6 13 12 14 19 5 24 -9 6 -10 16 -2 43
27 87 -69 165 -157 129z"/>
<path d="M1191 998 c-5 -13 -25 -61 -45 -108 -20 -46 -36 -86 -36 -87 0 -2 13
-3 30 -3 19 0 33 7 40 20 8 15 21 20 48 20 26 0 41 -6 50 -20 12 -20 62 -28
62 -10 0 5 -19 55 -41 110 -39 94 -43 100 -71 100 -20 0 -31 -6 -37 -22z"/>
</g>
</svg>
