<?xml version="1.0" standalone="no"?>
<!DOCTYPE svg PUBLIC "-//W3C//DTD SVG 20010904//EN"
 "http://www.w3.org/TR/2001/REC-SVG-20010904/DTD/svg10.dtd">
<svg version="1.0" xmlns="http://www.w3.org/2000/svg"
 width="225.000000pt" height="225.000000pt" viewBox="0 0 225.000000 225.000000"
 preserveAspectRatio="xMidYMid meet">
<metadata>
Created by potrace 1.12, written by Peter Selinger 2001-2015
</metadata>
<g transform="translate(0.000000,225.000000) scale(0.100000,-0.100000)"
fill="#000000" stroke="none">
<path d="M1346 1811 c-13 -23 -197 -624 -192 -628 3 -3 36 7 72 22 l66 28 19
-24 c10 -13 28 -45 40 -71 12 -27 25 -48 29 -48 3 0 43 11 89 24 l83 24 16
-30 c36 -64 30 -62 116 -44 43 9 86 16 95 16 9 -1 36 -27 61 -60 44 -58 46
-59 96 -60 27 0 57 6 66 13 22 16 195 564 182 576 -5 5 -162 57 -349 116 -487
154 -485 154 -489 146z m412 -177 c202 -64 368 -117 369 -118 4 -3 -149 -481
-156 -487 -3 -4 -17 -9 -31 -12 -23 -6 -32 2 -75 58 -28 35 -57 64 -65 64 -8
0 -44 -6 -80 -14 -89 -20 -85 -21 -114 30 -15 25 -28 45 -29 45 -2 0 -41 -11
-87 -24 -47 -14 -85 -24 -86 -23 0 1 -18 34 -39 72 -21 39 -40 72 -42 74 -1 2
-21 -4 -43 -14 -22 -10 -42 -16 -45 -14 -2 3 14 61 36 129 22 69 56 176 75
238 19 61 37 112 40 112 2 0 170 -52 372 -116z"/>
<path d="M200 1225 l0 -585 173 0 c96 0 176 -2 178 -5 3 -2 1 -43 -4 -90 -5
-47 -8 -87 -6 -89 9 -9 868 -100 875 -93 8 8 80 635 73 641 -2 3 -34 -3 -70
-11 l-67 -16 -61 53 -61 53 -63 -27 c-34 -14 -65 -26 -69 -26 -5 0 -8 176 -8
390 l0 390 -445 0 -445 0 0 -585z m832 0 l0 -530 -391 -3 -391 -2 0 535 0 535
391 -2 391 -3 0 -530z m250 -257 c60 -51 60 -52 101 -41 23 7 43 10 45 8 4 -4
-47 -490 -53 -511 -2 -7 -129 4 -381 32 -209 24 -382 43 -386 43 -10 1 -10 52
-2 104 l7 37 238 0 239 0 0 164 0 164 63 25 c34 15 64 26 66 27 2 0 30 -23 63
-52z"/>
<path d="M360 1405 l0 -25 285 0 285 0 0 25 0 25 -285 0 -285 0 0 -25z"/>
<path d="M355 1278 l2 -23 286 -3 287 -2 0 25 0 25 -288 0 -289 0 2 -22z"/>
<path d="M360 1155 l0 -25 285 0 285 0 0 25 0 25 -285 0 -285 0 0 -25z"/>
<path d="M360 1025 l0 -25 285 0 285 0 0 25 0 25 -285 0 -285 0 0 -25z"/>
<path d="M360 905 l0 -25 180 0 180 0 0 25 0 25 -180 0 -180 0 0 -25z"/>
</g>
</svg>
