<?xml version="1.0" standalone="no"?>
<!DOCTYPE svg PUBLIC "-//W3C//DTD SVG 20010904//EN"
 "http://www.w3.org/TR/2001/REC-SVG-20010904/DTD/svg10.dtd">
<svg version="1.0" xmlns="http://www.w3.org/2000/svg"
 width="225.000000pt" height="225.000000pt" viewBox="0 0 225.000000 225.000000"
 preserveAspectRatio="xMidYMid meet">
<metadata>
Created by potrace 1.12, written by Peter Selinger 2001-2015
</metadata>
<g transform="translate(0.000000,225.000000) scale(0.100000,-0.100000)"
fill="#000000" stroke="none">
<path d="M410 1125 l0 -665 450 0 449 0 3 72 3 71 105 44 c58 23 106 43 108
43 1 0 2 -52 2 -115 l0 -115 170 0 170 0 0 665 0 665 -730 0 -730 0 0 -665z
m1400 0 l0 -615 -110 0 -110 0 0 150 0 150 -29 0 c-26 0 -30 -4 -33 -32 -3
-30 -8 -33 -108 -75 -58 -23 -106 -43 -107 -43 -2 0 -3 34 -3 75 l0 75 -30 0
-30 0 0 -150 0 -150 -110 0 -109 0 -3 148 -3 147 -27 3 -27 3 -3 -148 -3 -148
-108 0 -109 0 -1 145 -2 145 -30 0 -30 0 -1 -145 -1 -145 -109 0 -109 0 -3
613 -2 612 675 0 675 0 0 -615z"/>
<path d="M961 1588 c-5 -13 -23 -56 -40 -95 l-30 -73 29 0 c20 0 31 6 35 20 5
15 15 20 40 20 24 0 38 -6 45 -20 10 -19 60 -29 60 -13 0 4 -16 47 -36 95 -34
82 -39 88 -66 88 -20 0 -31 -6 -37 -22z"/>
<path d="M1119 1518 c32 -80 41 -93 63 -96 24 -3 28 4 62 88 20 49 36 92 36
95 0 3 -13 5 -28 5 -26 0 -31 -6 -47 -55 -11 -30 -21 -52 -24 -49 -4 3 -13 26
-22 52 -14 41 -19 47 -47 50 l-31 3 38 -93z"/>
<path d="M1324 1575 c-8 -20 -26 -61 -39 -92 -14 -30 -25 -57 -25 -59 0 -2 13
-4 29 -4 21 0 32 6 36 20 5 15 15 20 40 20 24 0 38 -6 45 -20 6 -12 21 -20 36
-20 30 0 31 -7 -19 112 -29 71 -35 78 -60 78 -23 0 -31 -7 -43 -35z"/>
<path d="M1005 1330 c-19 -21 -18 -21 43 -83 l62 -62 65 65 c65 64 65 64 45
84 -20 20 -20 20 -65 -24 l-45 -44 -43 42 -43 43 -19 -21z"/>
<path d="M827 1104 c-4 -4 -7 -47 -7 -96 l0 -88 80 0 c73 0 80 2 80 20 0 17
-7 20 -50 20 -38 0 -50 4 -50 15 0 11 12 15 45 15 38 0 45 3 45 20 0 17 -7 20
-45 20 -33 0 -45 4 -45 15 0 11 12 15 51 15 47 0 50 2 47 23 -3 20 -9 22 -73
25 -39 1 -74 0 -78 -4z"/>
<path d="M1009 1108 c-1 -2 -3 -45 -4 -95 l-2 -93 28 0 c26 0 28 3 31 48 l3
47 34 -47 c27 -38 40 -48 63 -48 l29 0 -3 93 c-3 91 -3 92 -28 92 -22 0 -26
-5 -30 -44 l-5 -45 -35 47 c-23 31 -43 46 -57 47 -13 0 -24 -1 -24 -2z"/>
<path d="M1259 1096 c-87 -49 -42 -182 60 -180 62 2 81 18 81 69 l0 45 -45 0
c-38 0 -45 -3 -45 -20 0 -14 7 -20 21 -20 27 0 19 -24 -10 -28 -30 -5 -51 15
-51 48 0 37 22 54 64 47 39 -6 68 15 48 35 -17 17 -94 20 -123 4z"/>
</g>
</svg>
