<?xml version="1.0" standalone="no"?>
<!DOCTYPE svg PUBLIC "-//W3C//DTD SVG 20010904//EN"
 "http://www.w3.org/TR/2001/REC-SVG-20010904/DTD/svg10.dtd">
<svg version="1.0" xmlns="http://www.w3.org/2000/svg"
 width="225.000000pt" height="225.000000pt" viewBox="0 0 225.000000 225.000000"
 preserveAspectRatio="xMidYMid meet">
<metadata>
Created by potrace 1.12, written by Peter Selinger 2001-2015
</metadata>
<g transform="translate(0.000000,225.000000) scale(0.100000,-0.100000)"
fill="#000000" stroke="none">
<path d="M432 1118 l3 -543 698 -3 697 -2 0 545 0 545 -700 0 -700 0 2 -542z
m1343 457 l0 -35 -645 0 -645 0 0 35 0 35 645 0 645 0 0 -35z m-2 -522 l-3
-428 -640 0 -640 0 -3 428 -2 427 645 0 645 0 -2 -427z"/>
<path d="M671 1392 c-118 -60 -134 -219 -31 -305 55 -46 152 -49 215 -6 105
73 99 240 -11 305 -50 29 -123 32 -173 6z m171 -69 c59 -59 46 -160 -25 -203
-70 -43 -159 -11 -187 68 -20 57 0 116 50 150 50 34 120 27 162 -15z"/>
<path d="M1010 1275 l0 -25 235 0 235 0 0 25 0 25 -235 0 -235 0 0 -25z"/>
<path d="M1010 1170 l0 -30 183 2 182 3 0 25 0 25 -182 3 -183 2 0 -30z"/>
<path d="M1010 995 l0 -25 285 0 285 0 0 25 0 25 -285 0 -285 0 0 -25z"/>
<path d="M1010 890 l0 -30 285 0 285 0 0 30 0 30 -285 0 -285 0 0 -30z"/>
<path d="M1010 785 l0 -25 285 0 285 0 0 25 0 25 -285 0 -285 0 0 -25z"/>
</g>
</svg>
