<?xml version="1.0" standalone="no"?>
<!DOCTYPE svg PUBLIC "-//W3C//DTD SVG 20010904//EN"
 "http://www.w3.org/TR/2001/REC-SVG-20010904/DTD/svg10.dtd">
<svg version="1.0" xmlns="http://www.w3.org/2000/svg"
 width="225.000000pt" height="225.000000pt" viewBox="0 0 225.000000 225.000000"
 preserveAspectRatio="xMidYMid meet">
<metadata>
Created by potrace 1.12, written by Peter Selinger 2001-2015
</metadata>
<g transform="translate(0.000000,225.000000) scale(0.100000,-0.100000)"
fill="#000000" stroke="none">
<path d="M1000 1774 c-219 -47 -394 -219 -446 -440 -30 -130 -2 -311 65 -414
l29 -45 -147 -148 -146 -147 88 -87 87 -88 152 151 153 151 50 -25 c195 -96
459 -51 628 108 120 112 181 255 181 420 0 164 -52 287 -169 406 -139 141
-333 200 -525 158z m263 -59 c171 -50 310 -189 361 -364 21 -71 21 -211 0
-282 -50 -169 -172 -299 -337 -357 -145 -51 -323 -29 -452 56 -106 69 -176
160 -217 281 -32 93 -32 230 0 323 93 272 374 421 645 343z m-530 -933 l47
-47 -125 -125 -125 -124 -48 47 -49 48 121 123 c67 67 123 123 126 124 3 1 27
-19 53 -46z"/>
<path d="M1013 1635 c-200 -54 -333 -224 -333 -425 0 -215 155 -395 370 -432
134 -23 266 19 370 118 71 68 113 146 131 244 54 303 -241 575 -538 495z m179
-46 c73 -15 161 -64 208 -115 47 -51 50 -64 15 -64 -31 0 -81 -24 -113 -54
-64 -58 -82 -168 -42 -251 26 -54 57 -79 122 -102 26 -10 48 -21 48 -24 0 -18
-100 -95 -158 -122 -59 -28 -77 -31 -152 -31 -122 1 -186 28 -271 113 -86 86
-113 150 -113 271 0 112 26 180 101 260 96 105 222 147 355 119z m298 -275
c17 -49 17 -149 1 -207 -13 -44 -16 -47 -48 -47 -103 0 -168 135 -108 226 22
35 74 64 112 64 27 0 33 -5 43 -36z"/>
<path d="M1080 1257 c0 -122 -3 -157 -16 -175 -20 -29 -72 -29 -108 -1 l-28
22 -20 -21 c-28 -28 -17 -49 38 -74 76 -33 159 -11 191 53 9 16 13 77 13 187
l0 162 -35 0 -35 0 0 -153z"/>
<path d="M1740 1200 l0 -130 84 0 c69 0 88 4 110 21 31 25 35 68 7 93 -17 16
-18 20 -5 45 32 64 -16 101 -132 101 l-64 0 0 -130z"/>
</g>
</svg>
