<?xml version="1.0" standalone="no"?>
<!DOCTYPE svg PUBLIC "-//W3C//DTD SVG 20010904//EN"
 "http://www.w3.org/TR/2001/REC-SVG-20010904/DTD/svg10.dtd">
<svg version="1.0" xmlns="http://www.w3.org/2000/svg"
 width="225.000000pt" height="225.000000pt" viewBox="0 0 225.000000 225.000000"
 preserveAspectRatio="xMidYMid meet">
<metadata>
Created by potrace 1.12, written by Peter Selinger 2001-2015
</metadata>
<g transform="translate(0.000000,225.000000) scale(0.100000,-0.100000)"
fill="#000000" stroke="none">
<path d="M337 1858 c-23 -14 -45 -38 -58 -64 -19 -40 -20 -58 -17 -258 3 -200
4 -217 24 -243 45 -60 72 -68 264 -72 l175 -4 27 -55 c25 -53 26 -57 10 -86
-10 -20 -16 -57 -16 -101 -1 -86 21 -131 81 -161 34 -17 39 -24 31 -39 -18
-31 -4 -120 25 -163 31 -43 92 -82 131 -82 16 0 31 -9 42 -25 43 -65 206 -102
269 -61 27 18 29 18 57 1 66 -39 197 -16 258 45 24 24 50 39 74 43 50 8 101
48 127 100 17 33 20 53 17 102 l-5 61 35 20 c55 30 75 65 80 137 3 46 -1 76
-17 116 l-20 54 20 39 c28 56 35 151 16 219 -27 91 -104 164 -194 184 -27 5
-33 12 -33 31 0 31 -21 72 -52 101 -77 72 -240 76 -319 7 -14 -12 -18 -11 -34
6 -9 10 -31 24 -49 30 -22 7 -37 23 -51 52 -11 23 -33 51 -48 62 -27 20 -43
21 -420 23 -388 3 -392 3 -430 -19z m806 -39 c55 -28 57 -38 57 -267 l0 -214
-29 -29 c-28 -28 -34 -29 -115 -29 -79 0 -86 2 -86 20 0 15 -7 20 -25 20 -25
0 -25 -1 -25 -87 1 -49 7 -105 14 -126 13 -37 13 -37 -8 -31 -94 29 -156 116
-156 218 0 32 -3 36 -25 36 -20 0 -25 -5 -25 -25 l0 -25 -170 0 c-189 0 -210
6 -229 62 -6 18 -11 110 -11 217 0 168 2 189 20 219 11 18 30 37 43 42 34 13
743 13 770 -1z m474 -138 c47 -22 76 -67 71 -111 -4 -40 17 -60 66 -60 54 0
107 -36 143 -98 57 -96 25 -261 -62 -328 -73 -56 -163 -55 -220 1 -31 31 -34
33 -55 18 l-22 -15 33 -34 c79 -82 217 -83 306 -2 l21 20 11 -38 c29 -106 -11
-184 -94 -184 -37 0 -52 -43 -25 -70 41 -41 12 -147 -50 -183 -86 -51 -167 32
-173 175 -2 57 -3 58 -31 58 l-29 0 6 -62 c10 -95 25 -136 68 -183 38 -41 39
-44 22 -60 -47 -47 -166 -62 -203 -25 -20 20 -20 33 -20 570 0 388 3 556 11
574 25 55 144 74 226 37z m-312 -16 l25 -24 0 -565 0 -565 -22 -15 c-29 -21
-110 -21 -151 0 -18 8 -46 31 -63 51 -25 29 -39 36 -72 37 -91 5 -154 123
-101 190 29 37 14 76 -29 76 -70 0 -111 77 -91 169 6 28 12 51 14 51 2 0 25
-11 52 -24 26 -13 64 -27 83 -30 19 -3 52 -8 73 -11 36 -6 37 -5 37 24 0 23
-5 30 -22 33 -28 4 -56 52 -64 110 l-6 45 90 5 c103 6 144 25 177 80 18 30 20
51 20 210 0 193 3 201 50 153z"/>
<path d="M1513 1515 c7 -51 35 -111 64 -137 29 -26 105 -58 141 -58 27 0 32 4
32 24 0 20 -6 24 -40 29 -82 11 -139 72 -143 153 -2 30 -5 34 -31 34 -28 0
-29 -1 -23 -45z"/>
<path d="M1050 910 c0 -11 0 -23 0 -27 0 -5 13 -11 29 -16 60 -15 93 -107 61
-168 -10 -17 -9 -23 1 -30 26 -17 43 -4 57 43 23 82 -19 173 -95 204 -44 19
-53 18 -53 -6z"/>
</g>
</svg>
