<?xml version="1.0" standalone="no"?>
<!DOCTYPE svg PUBLIC "-//W3C//DTD SVG 20010904//EN"
 "http://www.w3.org/TR/2001/REC-SVG-20010904/DTD/svg10.dtd">
<svg version="1.0" xmlns="http://www.w3.org/2000/svg"
 width="225.000000pt" height="225.000000pt" viewBox="0 0 225.000000 225.000000"
 preserveAspectRatio="xMidYMid meet">
<metadata>
Created by potrace 1.12, written by Peter Selinger 2001-2015
</metadata>
<g transform="translate(0.000000,225.000000) scale(0.100000,-0.100000)"
fill="#000000" stroke="none">
<path d="M376 1771 c-58 -39 -63 -55 -70 -268 -4 -108 -4 -286 0 -396 l7 -200
34 -38 c37 -41 92 -59 178 -59 44 0 45 -1 45 -33 0 -88 -51 -177 -101 -177
-14 0 -19 -7 -19 -26 l0 -27 73 6 c93 7 173 38 231 89 45 39 96 120 96 153 0
13 27 15 199 15 l198 0 7 -61 c7 -71 31 -116 77 -143 26 -16 58 -20 162 -24
l128 -5 16 -38 c35 -88 147 -155 268 -161 47 -3 50 -2 50 22 0 17 -7 26 -25
30 -29 7 -55 50 -64 107 l-6 42 44 6 c56 9 101 36 126 77 18 30 20 51 20 201
0 188 -8 220 -64 260 -28 20 -45 22 -183 25 l-153 3 0 262 c0 293 -3 309 -70
355 l-33 22 -571 0 c-543 0 -572 -1 -600 -19z m1168 -42 c51 -23 56 -55 56
-327 l0 -250 -124 -4 c-108 -3 -128 -6 -153 -24 -48 -36 -66 -79 -71 -171 l-5
-83 -191 0 -192 0 4 36 c4 34 3 35 -24 32 -28 -3 -29 -5 -35 -68 -10 -120 -68
-199 -174 -239 -27 -11 -51 -18 -53 -17 -1 2 6 18 15 37 13 25 19 66 21 157
l4 122 -26 0 c-22 0 -26 -4 -26 -30 l0 -30 -76 0 c-70 0 -78 2 -105 29 l-29
29 0 377 0 377 29 29 29 29 551 0 c390 0 557 -3 575 -11z m422 -663 l34 -34 0
-157 c0 -95 -4 -165 -11 -178 -18 -36 -52 -57 -91 -57 -34 0 -38 3 -38 25 0
20 -5 25 -25 25 -24 0 -25 -2 -25 -73 0 -40 6 -96 14 -125 13 -52 13 -52 -8
-46 -41 11 -101 60 -123 99 -12 22 -25 66 -29 98 -6 51 -9 57 -30 57 -20 0
-24 -5 -24 -30 l0 -30 -121 0 c-120 0 -121 0 -150 29 l-29 29 0 169 c0 179 4
193 55 221 13 8 114 11 294 12 l273 0 34 -34z"/>
<path d="M927 1640 c-105 -18 -199 -90 -246 -190 -37 -78 -37 -192 0 -270 150
-318 629 -216 629 135 0 155 -119 302 -260 321 -25 3 -52 7 -60 9 -8 1 -36 -1
-63 -5z m163 -71 c98 -44 170 -151 170 -254 0 -107 -80 -220 -183 -260 -57
-21 -164 -17 -214 9 -187 96 -213 338 -52 468 75 60 194 76 279 37z"/>
<path d="M810 1280 c0 -102 117 -193 212 -165 75 23 128 89 128 160 l0 35
-170 0 -170 0 0 -30z m284 -29 c10 -16 -43 -69 -79 -81 -44 -15 -96 1 -125 37
-38 48 -30 53 89 53 61 0 112 -4 115 -9z"/>
</g>
</svg>
