<?xml version="1.0" encoding="UTF-8" standalone="no"?>
<!-- Created with Inkscape (http://www.inkscape.org/) -->

<svg
   xmlns:dc="http://purl.org/dc/elements/1.1/"
   xmlns:cc="http://creativecommons.org/ns#"
   xmlns:rdf="http://www.w3.org/1999/02/22-rdf-syntax-ns#"
   xmlns:svg="http://www.w3.org/2000/svg"
   xmlns="http://www.w3.org/2000/svg"
   version="1.1"
   width="744.09448"
   height="1052.3622"
   id="svg2">
  <defs
     id="defs4">
    <clipPath
       id="clipPath2999">
      <path
         d="M 0,400 400,400 400,0 0,0 0,400 z"
         id="path3001" />
    </clipPath>
  </defs>
  <metadata
     id="metadata7">
    <rdf:RDF>
      <cc:Work
         rdf:about="">
        <dc:format>image/svg+xml</dc:format>
        <dc:type
           rdf:resource="http://purl.org/dc/dcmitype/StillImage" />
        <dc:title></dc:title>
      </cc:Work>
    </rdf:RDF>
  </metadata>
  <g
     id="layer1">
    <g
       transform="matrix(1.25,0,0,-1.25,76.159229,744.42274)"
       id="g2993">
      <g
         id="g2995">
        <g
           clip-path="url(#clipPath2999)"
           id="g2997">
          <g
             transform="translate(190.4434,159.875)"
             id="g3003">
            <path
               d="M 0,0 C 0.437,-0.335 1.166,-0.356 1.622,-0.048 L 5.593,2.644 C 6.049,2.952 6.299,3.638 6.15,4.167 L 5.068,8.013 C 4.92,8.542 5.075,9.33 5.414,9.763 l 3.115,4.714 c 0.264,0.482 0.925,0.937 1.47,1.008 l 3.952,0.525 c 0.545,0.071 1.076,0.573 1.18,1.113 l 0.905,4.71 c 0.104,0.54 -0.204,1.202 -0.683,1.472 l -3.469,1.944 c -0.48,0.27 -0.925,0.937 -0.989,1.482 l -1.144,5.555 c -0.153,0.528 -0.006,1.318 0.329,1.754 l 2.417,3.152 c 0.335,0.437 0.357,1.166 0.048,1.622 L 9.854,42.786 C 9.545,43.241 8.858,43.492 8.329,43.343 L 4.504,42.268 C 3.975,42.119 3.187,42.274 2.753,42.612 l -4.734,3.119 c -0.484,0.263 -0.938,0.924 -1.01,1.469 l -0.522,3.945 c -0.072,0.545 -0.573,1.076 -1.113,1.18 l -4.712,0.905 c -0.54,0.103 -1.202,-0.204 -1.472,-0.684 l -1.948,-3.477 c -0.269,-0.479 -0.935,-0.925 -1.482,-0.991 l -5.533,-1.145 c -0.529,-0.154 -1.318,-0.007 -1.754,0.328 l -3.169,2.428 c -0.437,0.335 -1.167,0.356 -1.622,0.048 l -3.973,-2.692 c -0.455,-0.309 -0.706,-0.994 -0.558,-1.524 l 1.086,-3.856 c 0.149,-0.53 -0.006,-1.318 -0.344,-1.751 L -33.2,35.217 c -0.263,-0.484 -0.924,-0.938 -1.469,-1.01 l -3.98,-0.526 c -0.545,-0.073 -1.077,-0.574 -1.18,-1.114 l -0.905,-4.711 c -0.104,-0.54 0.204,-1.202 0.683,-1.471 l 3.509,-1.969 c 0.479,-0.27 0.926,-0.936 0.991,-1.482 l 1.135,-5.49 c 0.154,-0.528 0.007,-1.317 -0.328,-1.754 l -2.448,-3.194 c -0.335,-0.436 -0.357,-1.166 -0.048,-1.622 l 2.692,-3.973 c 0.308,-0.456 0.994,-0.706 1.524,-0.556 l 3.873,1.09 c 0.529,0.149 1.317,-0.006 1.751,-0.344 l 4.678,-3.089 c 0.484,-0.264 0.937,-0.926 1.009,-1.471 l 0.528,-3.985 c 0.073,-0.545 0.574,-1.076 1.114,-1.18 l 4.711,-0.907 c 0.54,-0.104 1.202,0.204 1.471,0.684 l 1.963,3.501 c 0.27,0.479 0.937,0.924 1.483,0.99 l 5.51,1.132 c 0.529,0.153 1.318,0.005 1.754,-0.33 L 0,0 z"
               id="path3005"
               style="fill:none;stroke:#000000;stroke-width:4;stroke-linecap:butt;stroke-linejoin:miter;stroke-miterlimit:10;stroke-opacity:1;stroke-dasharray:none" />
          </g>
          <g
             transform="translate(184.8623,174.7344)"
             id="g3007">
            <path
               d="m 0,0 c -5.516,-3.736 -13.016,-2.296 -16.753,3.218 -3.737,5.514 -2.296,13.015 3.219,16.753 5.513,3.736 13.014,2.296 16.751,-3.219 C 6.954,11.238 5.514,3.736 0,0 z"
               id="path3009"
               style="fill:none;stroke:#000000;stroke-width:4;stroke-linecap:butt;stroke-linejoin:miter;stroke-miterlimit:10;stroke-opacity:1;stroke-dasharray:none" />
          </g>
          <g
             transform="translate(259.6855,180.376)"
             id="g3011">
            <path
               d="m 0,0 c 0.437,-0.335 1.166,-0.355 1.622,-0.048 l 5.334,3.616 c 0.456,0.308 0.706,0.994 0.558,1.524 l -1.476,5.241 c -0.148,0.529 0.007,1.317 0.346,1.75 l 4.137,6.26 c 0.262,0.483 0.924,0.937 1.469,1.009 l 5.389,0.712 c 0.545,0.072 1.076,0.573 1.18,1.113 l 1.214,6.329 c 0.104,0.54 -0.204,1.202 -0.683,1.472 l -4.731,2.654 c -0.479,0.269 -0.924,0.936 -0.99,1.483 l -1.517,7.37 c -0.155,0.528 -0.007,1.317 0.328,1.753 l 3.299,4.304 c 0.334,0.437 0.355,1.166 0.046,1.621 l -3.615,5.335 c -0.308,0.455 -0.994,0.705 -1.523,0.557 L 5.167,52.586 C 4.638,52.438 3.85,52.592 3.416,52.931 l -6.282,4.142 c -0.484,0.262 -0.938,0.924 -1.01,1.469 l -0.712,5.377 C -4.66,64.464 -5.16,64.996 -5.701,65.1 l -6.328,1.216 c -0.541,0.104 -1.202,-0.203 -1.472,-0.683 l -2.658,-4.741 c -0.27,-0.479 -0.937,-0.926 -1.483,-0.991 l -7.347,-1.521 c -0.529,-0.154 -1.318,-0.006 -1.754,0.328 l -4.321,3.311 c -0.437,0.335 -1.166,0.356 -1.623,0.047 l -5.334,-3.615 c -0.456,-0.308 -0.706,-0.994 -0.557,-1.523 l 1.48,-5.257 c 0.149,-0.529 -0.006,-1.317 -0.344,-1.751 l -4.108,-6.238 c -0.263,-0.483 -0.924,-0.938 -1.469,-1.01 l -5.424,-0.717 c -0.545,-0.073 -1.077,-0.574 -1.18,-1.114 l -1.215,-6.33 c -0.103,-0.54 0.204,-1.202 0.684,-1.471 l 4.779,-2.681 c 0.479,-0.269 0.926,-0.936 0.991,-1.482 l 1.508,-7.292 c 0.153,-0.527 0.006,-1.317 -0.329,-1.753 l -3.336,-4.355 c -0.335,-0.437 -0.355,-1.166 -0.047,-1.623 l 3.615,-5.333 c 0.309,-0.457 0.994,-0.707 1.524,-0.557 l 5.278,1.485 c 0.53,0.15 1.317,-0.006 1.751,-0.344 l 6.215,-4.103 c 0.482,-0.263 0.937,-0.925 1.01,-1.47 l 0.718,-5.431 c 0.073,-0.545 0.575,-1.077 1.115,-1.18 l 6.326,-1.218 c 0.54,-0.103 1.202,0.204 1.472,0.684 l 2.676,4.771 c 0.269,0.48 0.937,0.925 1.483,0.99 l 7.316,1.502 c 0.528,0.154 1.318,0.005 1.754,-0.33 L 0,0 z"
               id="path3013"
               style="fill:none;stroke:#000000;stroke-width:4;stroke-linecap:butt;stroke-linejoin:miter;stroke-miterlimit:10;stroke-opacity:1;stroke-dasharray:none" />
          </g>
          <g
             transform="translate(252.5596,198.9814)"
             id="g3015">
            <path
               d="m 0,0 c -6.851,-4.643 -16.169,-2.852 -20.811,3.999 -4.642,6.85 -2.851,16.167 3.999,20.809 6.851,4.643 16.167,2.853 20.81,-3.997 C 8.64,13.96 6.85,4.643 0,0 z"
               id="path3017"
               style="fill:none;stroke:#000000;stroke-width:4;stroke-linecap:butt;stroke-linejoin:miter;stroke-miterlimit:10;stroke-opacity:1;stroke-dasharray:none" />
          </g>
          <g
             transform="translate(233.3018,134.1543)"
             id="g3019">
            <path
               d="M 0,0 C 0.486,-0.258 1.209,-0.157 1.606,0.224 L 3.654,2.18 C 4.052,2.561 4.185,3.278 3.95,3.775 L 2.983,5.819 c -0.234,0.497 -0.212,1.3 0.051,1.784 l 1.395,3.144 c 0.179,0.52 0.756,1.077 1.282,1.239 l 2.154,0.663 c 0.527,0.163 0.967,0.745 0.98,1.294 l 0.064,2.831 c 0.013,0.55 -0.4,1.153 -0.918,1.338 l -2.117,0.76 c -0.518,0.186 -1.068,0.77 -1.223,1.298 l -1.25,3.219 c -0.24,0.495 -0.224,1.298 0.033,1.784 l 1.05,1.985 c 0.257,0.487 0.158,1.209 -0.222,1.607 L 2.305,30.813 C 1.925,31.211 1.207,31.344 0.71,31.109 L -1.322,30.15 c -0.497,-0.234 -1.3,-0.213 -1.784,0.049 l -3.159,1.398 c -0.519,0.178 -1.078,0.755 -1.24,1.281 l -0.662,2.148 c -0.161,0.527 -0.744,0.967 -1.294,0.979 l -2.83,0.065 c -0.55,0.012 -1.152,-0.401 -1.338,-0.919 l -0.762,-2.123 c -0.185,-0.517 -0.769,-1.068 -1.297,-1.224 l -3.204,-1.248 c -0.494,-0.241 -1.296,-0.226 -1.783,0.031 l -1.999,1.058 c -0.486,0.256 -1.209,0.157 -1.606,-0.223 l -2.049,-1.958 c -0.399,-0.38 -0.531,-1.098 -0.296,-1.595 l 0.969,-2.051 c 0.235,-0.497 0.214,-1.299 -0.048,-1.784 l -1.382,-3.133 c -0.179,-0.519 -0.755,-1.077 -1.281,-1.239 l -2.174,-0.668 c -0.526,-0.162 -0.967,-0.744 -0.98,-1.294 l -0.064,-2.832 c -0.013,-0.55 0.4,-1.151 0.918,-1.337 l 2.146,-0.769 c 0.518,-0.186 1.069,-0.769 1.224,-1.296 l 1.238,-3.177 c 0.24,-0.495 0.225,-1.298 -0.032,-1.784 L -27.16,4.486 C -27.417,4 -27.317,3.277 -26.937,2.879 l 1.958,-2.049 c 0.379,-0.398 1.097,-0.531 1.594,-0.296 l 2.065,0.976 c 0.497,0.235 1.299,0.214 1.784,-0.048 l 3.116,-1.383 c 0.521,-0.18 1.077,-0.756 1.239,-1.282 l 0.671,-2.18 c 0.161,-0.526 0.744,-0.966 1.294,-0.978 l 2.832,-0.065 c 0.55,-0.012 1.152,0.402 1.337,0.919 l 0.769,2.143 c 0.185,0.517 0.768,1.068 1.297,1.222 l 3.19,1.237 c 0.495,0.239 1.298,0.223 1.784,-0.033 L 0,0 z"
               id="path3021"
               style="fill:none;stroke:#000000;stroke-width:4;stroke-linecap:butt;stroke-linejoin:miter;stroke-miterlimit:10;stroke-opacity:1;stroke-dasharray:none" />
          </g>
          <g
             transform="translate(227.8877,143.7754)"
             id="g3023">
            <path
               d="m 0,0 c -3.425,-3.271 -8.853,-3.146 -12.123,0.278 -3.273,3.423 -3.148,8.852 0.275,12.123 3.425,3.271 8.854,3.148 12.125,-0.277 C 3.548,8.7 3.424,3.271 0,0 z"
               id="path3025"
               style="fill:none;stroke:#000000;stroke-width:4;stroke-linecap:butt;stroke-linejoin:miter;stroke-miterlimit:10;stroke-opacity:1;stroke-dasharray:none" />
          </g>
          <g
             transform="translate(313.2207,208.1523)"
             id="g3027">
            <path
               d="m 0,0 c 1.865,6.202 2.873,12.777 2.873,19.589 0,37.422 -30.269,67.759 -67.608,67.759 -32.333,0 -59.359,-22.747 -66.028,-53.142 -7.582,4.354 -16.358,6.855 -25.722,6.855 -25.483,0 -46.654,-18.432 -51.004,-42.715 -4.424,1.231 -9.079,1.904 -13.895,1.904 -28.629,0 -51.837,-23.261 -51.837,-51.951 0,-28.693 23.208,-51.951 51.837,-51.951 l 216.326,0 c 28.629,0 51.837,23.258 51.837,51.951 C 46.779,-24.72 26.255,-2.549 0,0 z"
               id="path3029"
               style="fill:none;stroke:#000000;stroke-width:5;stroke-linecap:butt;stroke-linejoin:miter;stroke-miterlimit:10;stroke-opacity:1;stroke-dasharray:none" />
          </g>
        </g>
      </g>
    </g>
  </g>
</svg>
