<svg xmlns="http://www.w3.org/2000/svg" viewBox="0 0 162 48.7" enable-background="new 0 0 162 48.7"><path fill="#fff" d="M71.8 0h-71.8v48.7h71.8l17-24.4-17-24.3zm-34.4 32.2c-2.2 1.9-5.3 3.3-9.2 3.3-6.6 0-11.5-4.6-11.5-11.2 0-6.3 4.8-11.2 11.4-11.2 3.7 0 6.3 1.2 8.6 3.1l-3.4 4.2c-1.5-1.3-3-2-5.1-2-3 0-5.4 2.6-5.4 6 0 3.5 2.4 6 5.7 6 1.4 0 2.5-.3 3.4-.9v-2.6h-4.2v-4.4h9.7v9.7zm17.7 3.3c-6.5 0-11.4-5-11.4-11.2 0-6.2 4.9-11.2 11.4-11.2s11.4 5 11.4 11.2c0 6.2-4.9 11.2-11.4 11.2zm0-17.1c-3.2 0-5.3 2.7-5.3 5.8 0 3.1 2.2 5.8 5.4 5.8s5.4-2.7 5.4-5.8c-.1-3-2.3-5.8-5.5-5.8z"/><path fill="#fff" d="M90.6 0v48.7h71.4v-48.7h-71.4zm27.3 34.9h-6.9v-21h6.9v21zm27.7-14.1h-6.9v14.1h-6.9v-14.1h-6.9v-6.9h20.8v6.9z"/></svg>
