<?xml version="1.0" encoding="UTF-8"?>
<!DOCTYPE svg PUBLIC "-//W3C//DTD SVG 1.1//EN" "http://www.w3.org/Graphics/SVG/1.1/DTD/svg11.dtd">
<!-- Creator: CorelDRAW X7 -->
<svg xmlns="http://www.w3.org/2000/svg" xml:space="preserve" width="1001px" height="298px" version="1.1" style="shape-rendering:geometricPrecision; text-rendering:geometricPrecision; image-rendering:optimizeQuality; fill-rule:evenodd; clip-rule:evenodd"
viewBox="0 0 1001 298"
 xmlns:xlink="http://www.w3.org/1999/xlink">
 <defs>
  <style type="text/css">
   <![CDATA[
    .fil1 {fill:white;fill-rule:nonzero}
    .fil0 {fill:#333333;fill-rule:nonzero}
    .fil2 {fill:#D41353;fill-rule:nonzero}
   ]]>
  </style>
 </defs>
 <g id="Слой_x0020_1">
  <metadata id="CorelCorpID_0Corel-Layer"/>
  <path class="fil0" d="M294 289c-6,0 -11,0 -17,-1 -15,-2 -31,-6 -50,-12 -28,-9 -68,-23 -118,-44 -50,-20 -81,-34 -95,-43 -13,-9 -11,-13 8,-13 17,0 37,3 61,10 24,7 57,19 99,35l-37 1c-25,-10 -43,-17 -51,-20 -9,-3 -15,-5 -19,-5 -4,0 -1,3 10,7 10,5 33,14 68,28 2,2 6,3 11,5 31,13 52,21 64,25 11,5 19,7 24,7 5,0 4,-2 0,-4 -5,-3 -15,-7 -32,-14l-14 0 -44 -19 49 0 137 57 -23 0 -33 -14 0 0c8,4 13,7 13,10 1,3 -3,4 -11,4zm126 -13c13,9 10,13 -8,13 -18,0 -42,-4 -73,-13 -30,-9 -70,-23 -120,-44 -50,-20 -82,-35 -95,-43 -12,-9 -10,-13 8,-13 19,0 43,4 73,13 30,8 70,23 120,43 51,21 82,35 95,44zm-83 -14c11,4 19,6 23,6 4,0 1,-2 -8,-6 -10,-5 -34,-14 -71,-30 -37,-15 -61,-24 -72,-28 -11,-5 -19,-7 -23,-7 -4,0 -1,2 8,7 10,4 33,13 69,28 38,16 62,25 74,30z"/>
  <path class="fil1" d="M489 289l0 -283 112 0 0 52 -52 0 0 60 40 0 0 49 -40 0 0 122 -60 0zm122 0l0 -283 109 0 0 52 -49 0 0 57 35 0 0 48 -35 0 0 76 50 0 0 50 -110 0zm185 3c-12,0 -22,-2 -31,-5 -8,-3 -15,-8 -20,-13 -5,-5 -9,-12 -12,-21 -3,-9 -6,-17 -7,-26 -1,-8 -2,-18 -2,-31l56 -4c1,21 3,34 5,41 2,6 6,9 12,9 8,0 12,-6 12,-19 0,-3 0,-6 -1,-9 0,-3 -1,-6 -3,-8 -1,-3 -3,-6 -4,-8 -1,-2 -3,-5 -6,-8 -3,-3 -5,-5 -6,-7 -2,-1 -4,-4 -8,-8 -4,-3 -6,-6 -8,-8 -7,-7 -13,-14 -16,-18 -4,-4 -8,-10 -14,-18 -5,-8 -9,-17 -12,-25 -2,-9 -3,-19 -3,-29 0,-23 6,-41 17,-54 11,-13 28,-20 50,-20 26,0 44,7 54,22 10,15 16,38 17,69l-57 4c0,-13 -1,-23 -2,-30 -1,-6 -3,-10 -4,-11 -1,-2 -4,-2 -7,-2 -6,0 -9,5 -9,15 0,11 3,21 8,29 5,7 13,16 23,26 1,1 1,1 1,1 0,0 1,1 1,1 1,0 1,1 1,1 1,1 3,2 4,4 8,7 13,13 16,17 4,4 8,10 13,17 5,8 9,16 11,24 2,9 3,19 3,29 0,24 -6,42 -18,54 -12,13 -30,19 -54,19zm105 -3l0 -231 -35 0 0 -52 131 0 0 52 -35 0 0 231 -61 0z"/>
  <path class="fil2" d="M277 289l0 -283 61 0 0 283 -61 0zm107 0l0 -231 -35 0 0 -52 131 0 0 52 -36 0 0 231 -60 0z"/>
 </g>
</svg>
