<?xml version="1.0" encoding="utf-8"?>
<svg xmlns="http://www.w3.org/2000/svg"
	xmlns:xlink="http://www.w3.org/1999/xlink"
	width="17px" height="11px" viewBox="0 0 17 11">
<path fillRule="evenodd" d="M 16.28 2.48C 16.28 2.48 9.9 8.86 9.9 8.86 9.9 8.86 9.9 8.86 9.9 8.86 9.9 8.86 8.31 10.45 8.31 10.45 8.31 10.45 6.71 8.86 6.71 8.86 6.71 8.86 6.71 8.86 6.71 8.86 6.71 8.86 0.34 2.48 0.34 2.48 0.34 2.48 1.93 0.89 1.93 0.89 1.93 0.89 8.31 7.27 8.31 7.27 8.31 7.27 14.68 0.89 14.68 0.89 14.68 0.89 16.28 2.48 16.28 2.48Z" fill="rgb(51,51,51)"/></svg>
