<?xml version="1.0" encoding="utf-8"?>
<svg xmlns="http://www.w3.org/2000/svg"
	xmlns:xlink="http://www.w3.org/1999/xlink"
	width="32px" height="32px" viewBox="0 0 32 32">
<clipPath id="clip0"><circle cx="16.50" cy="15.50" r="15.50"/></clipPath><circle cx="16.50" cy="15.50" r="15.50" fill="none" stroke="rgb(255,255,255)" stroke-width="4.00px" clip-path="url(#clip0)"/><path fillRule="evenodd" d="M 22.09 15.68C 22.09 15.68 20.5 17.27 20.5 17.27 20.5 17.27 20.5 17.27 20.5 17.27 20.5 17.27 14.12 23.65 14.12 23.65 14.12 23.65 12.53 22.05 12.53 22.05 12.53 22.05 18.91 15.68 18.91 15.68 18.91 15.68 12.53 9.3 12.53 9.3 12.53 9.3 14.12 7.71 14.12 7.71 14.12 7.71 20.5 14.08 20.5 14.08 20.5 14.08 20.5 14.08 20.5 14.08 20.5 14.08 22.09 15.68 22.09 15.68Z" fill="rgb(255,255,255)"/></svg>
