<?xml version="1.0" standalone="no"?>
<!DOCTYPE svg PUBLIC "-//W3C//DTD SVG 20010904//EN"
 "http://www.w3.org/TR/2001/REC-SVG-20010904/DTD/svg10.dtd">
<svg version="1.0" xmlns="http://www.w3.org/2000/svg"
 width="225.000000pt" height="225.000000pt" viewBox="0 0 225.000000 225.000000"
 preserveAspectRatio="xMidYMid meet">
<metadata>
Created by potrace 1.12, written by Peter Selinger 2001-2015
</metadata>
<g transform="translate(0.000000,225.000000) scale(0.100000,-0.100000)"
fill="#000000" stroke="none">
<path d="M710 1533 l0 -277 -45 44 c-28 27 -41 48 -36 54 6 7 -45 68 -140 166
l-148 155 -46 -25 c-30 -16 -56 -40 -72 -68 l-25 -42 37 -43 c93 -104 260
-267 270 -263 7 2 55 -42 108 -99 l97 -104 1 -198 1 -198 79 -73 78 -72 418 2
418 3 3 588 2 587 -55 0 -55 0 0 70 0 70 -445 0 -445 0 0 -277z m840 -308 l0
-535 -395 0 -395 0 0 140 c0 77 3 140 6 140 3 0 36 -32 72 -70 63 -66 70 -70
124 -78 32 -5 59 -8 60 -6 2 1 1 27 0 58 l-4 56 -129 134 -129 135 0 281 0
280 395 0 395 0 0 -535z m105 -140 l0 -535 -385 0 -385 0 -50 45 -50 44 408 1
407 0 0 490 0 490 28 0 27 0 0 -535z m-1211 406 c61 -65 111 -122 112 -127 1
-5 -12 -21 -30 -36 l-32 -27 -118 125 -118 124 32 30 c18 17 35 30 39 29 3 0
55 -54 115 -118z m332 -384 c187 -197 210 -228 171 -226 -33 2 -400 392 -384
408 6 6 16 10 22 9 6 -2 92 -88 191 -191z"/>
<path d="M912 1441 c-33 -77 -57 -142 -54 -145 3 -3 16 -6 29 -6 18 0 28 9 39
35 15 36 15 36 71 33 51 -3 58 -6 73 -33 17 -30 70 -49 70 -25 0 14 -100 250
-113 268 -5 6 -20 12 -32 12 -19 0 -31 -19 -83 -139z"/>
<path d="M1230 1321 l0 -30 70 -3 69 -3 -74 -88 c-41 -49 -75 -97 -75 -108 0
-18 8 -19 120 -19 l120 0 0 25 c0 24 -2 25 -75 25 -41 0 -75 2 -75 5 0 3 34
45 75 92 52 59 75 93 73 107 -3 20 -10 21 -115 24 l-113 3 0 -30z"/>
</g>
</svg>
