<?xml version="1.0" standalone="no"?>
<!DOCTYPE svg PUBLIC "-//W3C//DTD SVG 20010904//EN"
 "http://www.w3.org/TR/2001/REC-SVG-20010904/DTD/svg10.dtd">
<svg version="1.0" xmlns="http://www.w3.org/2000/svg"
 width="225.000000pt" height="225.000000pt" viewBox="0 0 225.000000 225.000000"
 preserveAspectRatio="xMidYMid meet">
<metadata>
Created by potrace 1.12, written by Peter Selinger 2001-2015
</metadata>
<g transform="translate(0.000000,225.000000) scale(0.100000,-0.100000)"
fill="#000000" stroke="none">
<path d="M802 1876 c-168 -77 -212 -305 -81 -427 l31 -29 -151 0 -151 0 0
-125 0 -125 35 0 35 0 0 -365 0 -365 630 0 630 0 0 365 0 365 30 0 30 0 0 125
0 125 -156 0 -156 0 36 40 c19 22 42 56 51 76 22 54 19 155 -6 209 -26 55 -98
121 -148 135 -47 13 -126 13 -174 -1 -37 -10 -127 -86 -141 -119 -5 -12 -7
-12 -12 -2 -13 28 -59 75 -98 100 -33 21 -56 26 -121 29 -55 2 -90 -1 -113
-11z m184 -45 c97 -44 139 -132 130 -274 -2 -45 -5 -94 -5 -109 l-1 -28 -123
0 c-115 0 -127 2 -178 28 -35 18 -64 42 -84 70 -27 39 -30 52 -30 117 0 65 3
78 30 117 37 53 120 98 179 98 23 0 59 -9 82 -19z m474 -2 c60 -27 79 -45 106
-104 29 -61 30 -116 3 -175 -27 -60 -45 -79 -104 -106 -44 -21 -65 -24 -175
-24 l-125 0 -3 118 c-1 64 2 132 7 151 18 58 60 109 114 136 62 30 116 32 177
4z m-510 -534 l0 -75 -225 0 -225 0 0 75 0 75 225 0 225 0 0 -75z m342 0 l0
-70 -146 -3 -146 -3 0 76 0 76 146 -3 146 -3 0 -70z m500 0 l0 -70 -226 -3
-226 -2 0 75 0 75 226 -2 226 -3 0 -70z m-844 -467 l-3 -343 -190 0 -190 0 0
342 0 343 193 0 192 0 -2 -342z m345 -1 l-2 -342 -145 -3 -146 -3 0 346 0 345
148 0 147 0 -2 -343z m435 1 l-3 -343 -190 0 -190 0 -3 343 -2 342 195 0 195
0 -2 -342z"/>
<path d="M854 1770 c-64 -20 -116 -111 -100 -172 10 -41 44 -87 76 -103 17 -9
70 -18 125 -22 l95 -6 0 102 c0 113 -11 146 -58 180 -35 25 -96 34 -138 21z
m118 -69 c30 -27 33 -34 36 -106 l4 -77 -77 4 c-72 3 -79 6 -106 36 -89 99 44
232 143 143z"/>
<path d="M1335 1773 c-33 -9 -74 -43 -90 -74 -15 -28 -18 -66 -16 -178 l1 -54
95 6 c109 7 144 22 176 73 41 67 23 159 -41 205 -27 20 -92 31 -125 22z m111
-77 c26 -26 34 -43 34 -69 0 -69 -59 -110 -151 -105 l-54 3 0 73 c0 71 1 75
33 103 46 42 93 40 138 -5z"/>
</g>
</svg>
