<?xml version="1.0" standalone="no"?>
<!DOCTYPE svg PUBLIC "-//W3C//DTD SVG 20010904//EN"
 "http://www.w3.org/TR/2001/REC-SVG-20010904/DTD/svg10.dtd">
<svg version="1.0" xmlns="http://www.w3.org/2000/svg"
 width="225.000000pt" height="225.000000pt" viewBox="0 0 225.000000 225.000000"
 preserveAspectRatio="xMidYMid meet">
<metadata>
Created by potrace 1.12, written by Peter Selinger 2001-2015
</metadata>
<g transform="translate(0.000000,225.000000) scale(0.100000,-0.100000)"
fill="#000000" stroke="none">
<path d="M986 1818 c-7 -13 -45 -82 -84 -153 -38 -72 -81 -151 -95 -175 -22
-41 -300 -553 -385 -710 -19 -36 -39 -70 -44 -77 -7 -8 -1 -34 15 -75 14 -35
35 -89 47 -121 l21 -57 675 2 675 3 62 120 62 120 -330 572 -330 572 -137 1
c-132 0 -138 -1 -152 -22z m224 -25 c-1 -5 -113 -215 -250 -468 l-249 -460
282 -5 282 -5 37 -69 c21 -38 38 -71 38 -73 0 -1 -205 -3 -456 -3 l-455 0 44
83 c44 82 205 377 257 472 15 28 85 156 155 285 70 129 129 238 132 243 2 4
44 7 94 7 49 0 89 -3 89 -7z m297 -453 c132 -228 270 -467 307 -532 l67 -116
-43 -85 c-24 -47 -45 -86 -48 -86 -3 0 -124 204 -269 454 -227 391 -266 452
-276 437 -7 -9 -70 -123 -140 -252 -70 -129 -132 -241 -137 -247 -10 -12 -178
-20 -178 -8 0 16 465 864 471 857 3 -4 114 -194 246 -422z m-52 -345 c103
-176 209 -357 236 -403 27 -45 49 -87 49 -92 0 -7 -215 -9 -622 -8 l-622 3
-32 83 -32 82 499 0 c274 0 499 3 499 6 0 4 -61 116 -135 250 l-136 243 47 86
c26 48 50 83 55 78 4 -4 92 -152 194 -328z m-266 11 c28 -51 51 -96 51 -100 0
-7 -204 -8 -212 -1 -6 7 94 194 104 195 4 0 29 -42 57 -94z"/>
</g>
</svg>
